pts_time:2.919586
pts_time:4.421088
pts_time:4.87988
pts_time:5.255255
pts_time:7.048715
pts_time:12.137137
pts_time:13.847181
pts_time:16.307975
pts_time:21.021021
pts_time:21.938605
pts_time:23.273273
pts_time:23.481815
pts_time:23.690357
pts_time:23.898899
pts_time:24.107441
pts_time:25.900901
pts_time:26.44311
pts_time:26.860194
pts_time:27.444111
pts_time:28.23657
pts_time:29.362696
pts_time:32.198866
pts_time:34.743076
pts_time:36.161161
pts_time:37.120454
pts_time:39.748081
pts_time:40.373707
pts_time:43.37671
pts_time:46.546547
pts_time:50.675676
